<svg id="Layer_1" data-name="Layer 1" xmlns="http://www.w3.org/2000/svg" viewBox="0 0 284.79 70.77"><defs><style>.cls-1{fill:#830051;}.cls-2{fill:#f0ab00;}</style></defs><title>AZ_COL</title><path class="cls-1" d="M8.92,55.65,13.59,43,18,55.65ZM22.57,68.41h4.27L15.74,37.92H11.51L-.1,68.41H4.21l3.41-9.35H19.24ZM42.86,62c0,2.49-2,3.81-5.46,3.81-2.78,0-4.65-.78-5.68-2.58l-4.12.73c1.61,3.27,4.94,4.84,9.63,4.84,6.38,0,9.7-3.53,9.7-7.28,0-4.83-4.45-6.14-9.57-7.18C34.88,53.8,32,52.88,32,50.69c0-1.57,1.52-3.37,4.58-3.37a5.8,5.8,0,0,1,5.26,3l3.62-1.5c-1.66-3.16-5-4.45-8.44-4.45-5.36,0-8.91,2.65-8.91,6.84,0,4.78,4.09,5.72,8.06,6.58C39.56,58.48,42.86,59.32,42.86,62Zm12.62-24-4,1.67v5.63H47.79v3.25h3.67V63.36c-.05,3-.05,5.21,4.46,5.21a26.07,26.07,0,0,0,3.77-.39V65a10,10,0,0,1-2.55.53c-1.66,0-1.66-1.17-1.66-3.9V48.47h4.21V45.22H55.48Zm7.72,7.3V68.41h3.89V57.75c0-2,0-4.34,1-6,1.27-2.06,3.14-2.84,7-2.87v-4c-1.57,0-5.73.15-7.94,4.52V45.22Zm34.85-7.3v3.76h17.33L98,64.45v4h22.41V64.75h-17.7l17.26-23V37.92Zm46.77,7.3V68.41h3.89V55.26c0-1.72,0-3.47,1.72-5.19a6,6,0,0,1,4.43-1.75c2.11,0,4.28,1,5,3.17a12.68,12.68,0,0,1,.25,3.82v13.1H164V54.67a16.9,16.9,0,0,0-.4-4.75,7.62,7.62,0,0,0-7.61-5.3,8.16,8.16,0,0,0-7.23,4.13V45.22ZM205.25,62.8a5.49,5.49,0,0,1-5.35,3c-2.62,0-7-1.65-7-9.29,0-2.06.38-9.34,6.77-9.34a5.45,5.45,0,0,1,5.4,3.27L208.71,49c-2.25-3.74-6.3-4.61-9.19-4.61-7.39,0-11,5.94-11,12.49,0,5.67,3.09,12,11.29,12a9.81,9.81,0,0,0,8.83-4.58ZM126,54.41h12.29c-.34-6.06-3.84-7.09-6.17-7.09C128.82,47.32,126.47,49.76,126,54.41ZM141.52,64c-1.32,2.26-3.88,4.85-8.93,4.85-6.85,0-10.79-4.65-10.79-12.45,0-8.71,5.75-12,10.64-12,4.25,0,8.33,2.35,9.7,8.17a21,21,0,0,1,.44,4.7H125.93c-.1,3.88,1.52,8.78,7,8.69a5.51,5.51,0,0,0,4.81-2.65Zm28.74-9.56h12.29c-.34-6.06-3.84-7.09-6.17-7.09C173.05,47.32,170.7,49.76,170.26,54.41ZM185.75,64c-1.32,2.26-3.88,4.85-8.93,4.85C170,68.82,166,64.17,166,56.37c0-8.71,5.74-12,10.63-12,4.26,0,8.33,2.35,9.7,8.17a21,21,0,0,1,.44,4.7H170.16c-.1,3.88,1.53,8.78,7,8.69A5.51,5.51,0,0,0,182,63.24ZM230,68.41l-4.05,0a26.36,26.36,0,0,1-.46-3.41,10,10,0,0,1-7.76,3.74c-4.51,0-7.85-2.68-7.85-6.59a6.33,6.33,0,0,1,1-3.48c1.33-2,3.78-3.53,10.68-4.07l3.68-.3v-.58c0-2.4,0-6.42-5.18-6.42-3.25,0-4.36,1.57-4.73,3l-3.58-1.5a3.24,3.24,0,0,1,.19-.37c1.37-2.55,4.07-4.12,8-4.12a11.53,11.53,0,0,1,6.74,2c2.58,2,2.52,5.81,2.52,5.81L229.33,64S229.46,67.44,230,68.41ZM224.64,62c.59-1.28.63-1.81.63-5.2-1.51.25-3.56.54-6.07,1.08-4.3.94-5,2.55-5,4.17,0,1.86,1.47,3.43,4.35,3.43C221.22,65.5,223.52,64.42,224.64,62ZM95.29,68.41l-4.05,0A26.36,26.36,0,0,1,90.78,65,10,10,0,0,1,83,68.76c-4.5,0-7.85-2.68-7.85-6.59a6.25,6.25,0,0,1,1-3.48c1.33-2,3.79-3.53,10.69-4.07l3.66-.3v-.58c0-2.4,0-6.42-5.17-6.42-3.25,0-4.35,1.57-4.74,3l-3.58-1.5.19-.37c1.38-2.55,4.08-4.12,8-4.12a11.58,11.58,0,0,1,6.74,2c2.58,2,2.53,5.81,2.53,5.81L94.65,64A18.71,18.71,0,0,0,95.29,68.41ZM90,62c.58-1.28.64-1.81.64-5.2-1.52.25-3.57.54-6.07,1.08-4.31.94-5.05,2.55-5.05,4.17,0,1.86,1.47,3.43,4.36,3.43C86.54,65.5,88.85,64.42,90,62Z"/><path class="cls-2" d="M255.29,48.89c-.6.39-1.21.77-1.81,1.17-7-3.88-22-11.36-23.3-12s-3.82-1.69-3.51-4c.43-3.24,6.06-10.34,8.45-13.26C248.07,4.91,253.87,0,257.71.53c4.11.54,6.38,4.78,6.66,24.63-2.29-.71-4.82-1.44-7.51-2.11-.22-2.88-.75-7.23-1-8.74-.23-1.69-.56-2.34-1.25-2.43s-2.66,1.71-4.37,3.47l-5.41,5.47c-2-.14-3.39.29-4.14,1.28a3.73,3.73,0,0,0-.37,3.26l-3.15,3.15c-2.71,2.7-5.56,4.92-5.71,6-.11.89,1.25,1.81,3.2,3C239.45,40.34,251.15,46.67,255.29,48.89Zm18.17-19.81c-4.56-1.59-15.86-5.8-27.77-7.37-4.1-.53-5.75.92-4.06,4.83s6,10.31,10.5,15.15,9.42,6.15,11-1.31c.05-.27.1-.53.16-.79a54.64,54.64,0,0,0,.8-5.41c-2-.91-4.25-1.88-6.5-2.83.13,1.71.33,4.67.43,6.94,0,.29,0,.57,0,.85.14,3.68-1.12,3.67-3.21,2.16-2.44-1.74-9.92-11.62-10.78-16,0-.28.1-.29.25-.25l.18.08h0c1.69.66,7.31,2.88,13,5.29,2.27,1,4.56,1.94,6.62,2.87s3.82,1.77,5.17,2.49c2.47,1.32,3.43,2.22,2.39,3.28-5.14,5.21-23.06,12.63-29.26,21.8l-.06.09a2,2,0,0,0-.2.32l-.06.1a8,8,0,0,0-.89,2.73c-.26,2,.78,3.83,3.66,4.61a13.58,13.58,0,0,0,2.44.46c.15,0,.33,0,.5,0,5.53.27,19.88-2.88,24.25-4.82s3.16-4,1.85-5c-1-.78-6-3.58-8.43-4.93l-1.81,1.16a72.14,72.14,0,0,1,6.76,4.53c.37.3.16.64-.39.68l-.44,0c-3.94.27-11.4.8-14.9,1-.52,0-1.1.06-1.42.08A23.09,23.09,0,0,1,255.62,60c7.49-5.27,20-12.67,23.65-15.85C282,41.81,289.37,34.63,273.46,29.08Z"/></svg>